<svg width="30" height="30" viewBox="0 0 30 30" fill="none" xmlns="http://www.w3.org/2000/svg">
<g id="vuesax/outline/search-normal">
<g id="search-normal">
<path id="Vector" d="M14.375 27.1875C7.31249 27.1875 1.56249 21.4375 1.56249 14.375C1.56249 7.31248 7.31249 1.56248 14.375 1.56248C21.4375 1.56248 27.1875 7.31248 27.1875 14.375C27.1875 21.4375 21.4375 27.1875 14.375 27.1875ZM14.375 3.43748C8.33749 3.43748 3.43749 8.34998 3.43749 14.375C3.43749 20.4 8.33749 25.3125 14.375 25.3125C20.4125 25.3125 25.3125 20.4 25.3125 14.375C25.3125 8.34998 20.4125 3.43748 14.375 3.43748Z" fill="#B3B3B3"/>
<path id="Vector_2" d="M27.5 28.4375C27.2625 28.4375 27.025 28.35 26.8375 28.1625L24.3375 25.6625C23.975 25.3 23.975 24.7 24.3375 24.3375C24.7 23.975 25.3 23.975 25.6625 24.3375L28.1625 26.8375C28.525 27.2 28.525 27.8 28.1625 28.1625C27.975 28.35 27.7375 28.4375 27.5 28.4375Z" fill="#B3B3B3"/>
</g>
</g>
</svg>
